#!OML:ASF H:\GeneralSubjects\Female5\Project 1\Capture day 1\Session 1\Female5.ASF
:FULLY-SPECIFIED
:DEGREES
127
root -13.3235 14.9712 3.54703 -44.5624 -91.9083 60.0907
lowerback 15.8318 2.4456 4.63418
upperback -9.17821 5.03553 4.40134
thorax -19.9046 1.93489 1.02477
lowerneck -21.6444 0.0697978 -1.80613
upperneck 14.0992 1.7579 -6.21721
head 7.96976 0.0440383 -1.5734
rclavicle -2.77305e-014 -8.11041e-014
rhumerus 20.0866 24.0807 -68.7333
rradius 65.0521
rwrist -66.6662
rhand -30.37 -30.3417
rfingers 7.12502
rthumb -3.67478 -60.2898
lclavicle -2.77305e-014 -8.11041e-014
lhumerus 11.7406 -18.9165 83.4982
lradius 74.8257
lwrist 32.088
lhand -42.3156 51.0948
lfingers 7.12502
lthumb -15.1991 80.5165
rfemur 4.70012 -1.83875 21.5715
rtibia 14.5508
rfoot -44.1418 -21.7071
rtoes -21.8
lfemur -57.8931 -10.5788 -16.5215
ltibia 28.2775
lfoot -6.55107 16.4045
ltoes -45.6612
128
root -13.6694 14.9048 3.64499 -33.8822 -93.1138 49.7053
lowerback 16.2475 2.76563 4.98915
upperback -9.51493 5.59948 4.27397
thorax -20.5912 2.09119 0.486331
lowerneck -21.9473 0.0538922 -1.73728
upperneck 14.4425 1.67416 -5.78362
head 8.12718 0.0435551 -1.45379
rclavicle -5.8393e-015 3.18055e-015
rhumerus 20.4328 23.8683 -69.3621
rradius 66.5788
rwrist -67.4219
rhand -30.9909 -30.3018
rfingers 7.12502
rthumb -4.27435 -60.2386
lclavicle -5.8393e-015 3.18055e-015
lhumerus 12.6842 -19.479 83.5951
lradius 76.1345
lwrist 30.157
lhand -43.3214 53.1304
lfingers 7.12502
lthumb -16.1678 82.4761
rfemur 5.6714 -1.87875 21.4565
rtibia 14.3433
rfoot -43.0701 -22.3934
rtoes -24.4148
lfemur -58.0978 -10.04 -15.801
ltibia 29.6731
lfoot -5.84789 13.9017
ltoes -37.6321
129
root -14.0308 14.8117 3.74871 -24.6037 -94.4109 40.4969
lowerback 16.1982 3.05016 5.13863
upperback -9.60021 5.98763 4.01371
thorax -20.6117 2.20744 -0.0319468
lowerneck -21.995 0.212472 -1.25418
upperneck 14.311 1.68574 -5.47432
head 8.08743 0.11754 -1.42423
rclavicle 1.51325e-014 1.27222e-014
rhumerus 20.8477 23.7575 -70.1911
rradius 68.7261
rwrist -68.1397
rhand -31.9533 -30.0041
rfingers 7.12502
rthumb -5.20364 -59.9202
lclavicle 1.51325e-014 1.27222e-014
lhumerus 13.9273 -19.9933 83.2726
lradius 77.4868
lwrist 26.5245
lhand -42.5655 52.8939
lfingers 7.12502
lthumb -15.4399 82.2972
rfemur 6.645 -1.42798 20.9796
rtibia 14.7007
rfoot -42.0168 -21.9536
rtoes -26.2605
lfemur -57.789 -8.75805 -16.5962
ltibia 33.5056
lfoot -5.50109 8.2404
ltoes -28.7851
130
root -14.3933 14.6995 3.85664 -16.4769 -95.9598 32.1315
lowerback 17.1235 3.48457 4.74143
upperback -10.2869 6.61278 3.87605
thorax -21.5529 2.40067 -0.510868
lowerneck -21.9192 0.408871 -0.714746
upperneck 14.6505 1.77784 -5.30589
head 8.19123 0.206997 -1.44445
rclavicle 1.4797e-014 3.18055e-015
rhumerus 19.8995 24.0465 -71.3629
rradius 71.9671
rwrist -69.1962
rhand -33.0503 -30.2825
rfingers 7.12502
rthumb -6.26281 -60.1699
lclavicle 1.4797e-014 3.18055e-015
lhumerus 13.715 -20.782 83.5377
lradius 79.6808
lwrist 21.4883
lhand -42.7066 53.502
lfingers 7.12502
lthumb -15.5758 82.8949
rfemur 7.83311 0.000127135 20.3831
rtibia 15.208
rfoot -41.0673 -21.5554
rtoes -28.7597
lfemur -57.0139 -7.19217 -17.8559
ltibia 35.0561
lfoot -8.12249 7.5442
ltoes -26.8295
131
root -14.7528 14.593 3.96024 -10.1392 -97.5792 25.3663
lowerback 17.3703 3.83819 4.34278
upperback -10.1125 6.96271 3.57305
thorax -21.4731 2.58566 -0.773466
lowerneck -22.3904 0.578163 -0.523471
upperneck 14.4926 1.88608 -4.93607
head 8.21476 0.308982 -1.33592
rclavicle 1.5909e-014 1.11319e-014
rhumerus 19.825 24.598 -72.2877
rradius 76.0609
rwrist -69.854
rhand -34.7058 -30.3379
rfingers 7.12502
rthumb -7.86086 -60.1717
lclavicle 1.5909e-014 1.11319e-014
lhumerus 14.2671 -21.2248 83.4568
lradius 82.5251
lwrist 15.8394
lhand -44.7268 56.4373
lfingers 7.12502
lthumb -17.5207 85.6677
rfemur 8.8025 1.60671 19.5496
rtibia 16.2651
rfoot -39.3068 -22.3522
rtoes -32.3341
lfemur -56.7877 -6.37687 -18.5456
ltibia 37.6566
lfoot -9.52798 6.16655
ltoes -25.8314
132
root -15.1147 14.5253 4.05557 -3.73115 -98.9631 18.8667
lowerback 16.8606 4.10263 3.16061
upperback -9.72898 6.95363 3.54041
thorax -20.7942 2.79082 -0.103547
lowerneck -23.3934 0.846515 -0.522265
upperneck 14.1751 2.19449 -4.61155
head 8.27626 0.483529 -1.18465
rclavicle -2.44878e-014 3.97569e-014
rhumerus 19.9938 25.8359 -73.1697
rradius 80.818
rwrist -68.4106
rhand -35.6009 -29.7767
rfingers 7.12502
rthumb -8.72471 -59.5764
lclavicle -2.44878e-014 3.97569e-014
lhumerus 14.8128 -21.3116 83.6822
lradius 86.2359
lwrist 9.99613
lhand -45.3779 55.4756
lfingers 7.12502
lthumb -18.1472 84.6491
rfemur 9.23156 2.88606 18.2354
rtibia 17.3257
rfoot -39.041 -21.0793
rtoes -27.3706
lfemur -56.7806 -5.98371 -19.5336
ltibia 40.3979
lfoot -11.095 4.49036
ltoes -24.1635
133
root -15.4289 14.502 4.12456 2.11669 -99.501 13.8299
lowerback 15.9457 4.05199 1.39122
upperback -9.51614 6.37095 3.61421
thorax -20.6939 2.86688 1.45018
lowerneck -24.7714 1.25532 -0.573934
upperneck 14.3805 2.74915 -4.3381
head 8.58117 0.748349 -1.007
rclavicle 8.74653e-015 3.33958e-014
rhumerus 20.2341 28.2489 -73.1443
rradius 85.8836
rwrist -65.7249
rhand -36.5932 -28.7253
rfingers 7.12502
rthumb -9.68219 -58.4827
lclavicle 8.74653e-015 3.33958e-014
lhumerus 14.7367 -21.4616 84.2616
lradius 90.587
lwrist 5.74146
lhand -46.5065 56.95
lfingers 7.12502
lthumb -19.2328 86.019
rfemur 8.31059 2.6869 16.6738
rtibia 19.0437
rfoot -37.4425 -21.6358
rtoes -23.5641
lfemur -57.3913 -4.26179 -21.9474
ltibia 42.265
lfoot -10.2665 2.61516
ltoes -23.2933
134
root -15.7279 14.5174 4.18159 5.62424 -99.7539 11.1787
lowerback 15.0282 4.04861 0.490564
upperback -9.80233 6.09299 3.50466
thorax -20.533 2.86705 1.96644
lowerneck -25.3922 1.54208 -0.145264
upperneck 14.5409 3.06929 -4.64169
head 8.75833 0.875591 -1.1341
rclavicle -5.94366e-014 -3.97569e-014
rhumerus 19.4064 30.0247 -73.8035
rradius 90.7516
rwrist -61.8733
rhand -37.8792 -28.202
rfingers 7.12502
rthumb -10.9228 -57.8978
lclavicle -5.94366e-014 -3.97569e-014
lhumerus 14.4685 -23.031 84.757
lradius 94.5713
lwrist 2.97444
lhand -47.0706 59.9898
lfingers 7.12502
lthumb -19.7752 89.0038
rfemur 7.65213 2.50423 15.9117
rtibia 20.1893
rfoot -35.8191 -23.3987
rtoes -20.2486
lfemur -57.5886 -2.77341 -23.9374
ltibia 43.3338
lfoot -9.4304 0.946881
ltoes -22.954
135
root -15.9944 14.5599 4.2312 8.48508 -99.8506 8.89837
lowerback 14.691 4.0534 -0.133221
upperback -10.0617 5.89802 3.21026
thorax -20.6729 2.83902 2.04493
lowerneck -25.6008 1.44149 0.106854
upperneck 14.5488 2.83805 -4.59029
head 8.79108 0.786408 -1.19053
rclavicle -2.97556e-014 -3.18055e-015
rhumerus 18.6647 31.773 -74.127
rradius 94.813
rwrist -58.6918
rhand -38.9729 -27.8614
rfingers 7.12502
rthumb -11.9776 -57.4987
lclavicle -2.97556e-014 -3.18055e-015
lhumerus 14.6711 -25.5132 84.5202
lradius 97.4597
lwrist 2.2294
lhand -48.2636 59.4574
lfingers 7.12502
lthumb -20.9217 88.3491
rfemur 6.90225 1.69545 15.1981
rtibia 21.7217
rfoot -35.799 -23.2622
rtoes -13.4077
lfemur -57.2505 -1.73558 -25.4959
ltibia 43.8944
lfoot -8.75535 -0.467308
ltoes -22.4192
136
root -16.2292 14.6037 4.30609 6.10575 -99.5765 11.2565
lowerback 15.179 3.89768 0.776225
upperback -10.2631 5.87729 2.95339
thorax -21.1334 2.65997 1.21078
lowerneck -25.1582 1.27654 0.321842
upperneck 14.4496 2.50474 -4.45034
head 8.67419 0.669538 -1.22465
rclavicle -2.17421e-015 1.59028e-014
rhumerus 17.8579 33.6615 -74.1834
rradius 98.5552
rwrist -56.3006
rhand -39.5971 -27.6725
rfingers 7.12502
rthumb -12.5794 -57.2738
lclavicle -2.17421e-015 1.59028e-014
lhumerus 14.7819 -28.4769 83.929
lradius 99.3451
lwrist 1.25386
lhand -48.8509 60.1257
lfingers 7.12502
lthumb -21.4858 88.9541
rfemur 7.26123 0.992241 15.7444
rtibia 22.4474
rfoot -36.9532 -21.9552
rtoes -6.78515
lfemur -56.5944 -1.31964 -26.0242
ltibia 44.759
lfoot -8.32245 -1.85532
ltoes -21.9234
137
root -16.4494 14.6452 4.37216 5.85736 -99.3192 11.3724
lowerback 15.5758 3.85021 1.42498
upperback -10.8081 5.93605 2.5045
thorax -21.4421 2.48355 0.102272
lowerneck -23.3076 0.983952 0.538308
upperneck 13.4616 1.94512 -4.25469
head 8.01523 0.482449 -1.26414
rclavicle 8.52289e-015 -4.77083e-015
rhumerus 16.6531 35.9558 -73.9149
rradius 102.026
rwrist -53.3321
rhand -40.5016 -27.3565
rfingers 7.12502
rthumb -13.4512 -56.9022
lclavicle 8.52289e-015 -4.77083e-015
lhumerus 14.5386 -32.5103 83.0148
lradius 100.387
lwrist -0.0175368
lhand -49.2085 60.2122
lfingers 7.12502
lthumb -21.8292 89.001
rfemur 7.67562 0.119385 15.8839
rtibia 23.0134
rfoot -36.7494 -22.8878
rtoes -5.78713
lfemur -55.8273 -1.32387 -26.7289
ltibia 45.5369
lfoot -8.27777 -2.63665
ltoes -21.2218
138
root -16.6563 14.6849 4.42618 6.89257 -99.1192 10.2669
lowerback 15.6702 3.64277 1.32232
upperback -10.8076 5.63385 2.55747
thorax -21.5186 2.37304 0.31645
lowerneck -22.958 1.01134 0.131049
upperneck 13.2388 2.09358 -4.23747
head 7.88311 0.538809 -1.17178
rclavicle -1.2219e-014 -4.77083e-015
rhumerus 16.7763 39.5148 -72.3464
rradius 104.981
rwrist -49.6145
rhand -43.3109 -30.8801
rfingers 7.12502
rthumb -16.1578 -60.2266
lclavicle -1.2219e-014 -4.77083e-015
lhumerus 14.5346 -35.6455 82.0132
lradius 100.949
lwrist -1.01228
lhand -49.5028 61.0161
lfingers 7.12502
lthumb -22.1118 89.7717
rfemur 7.6738 -1.12939 15.7179
rtibia 23.8844
rfoot -37.8178 -21.7633
rtoes -4.69147
lfemur -55.1494 -1.74632 -27.3171
ltibia 46.2038
lfoot -8.23465 -3.43089
ltoes -21.1819
139
root -16.8531 14.7259 4.47207 8.12443 -98.9458 9.07561
lowerback 15.4862 3.5503 1.20422
upperback -10.801 5.46126 2.53047
thorax -21.3944 2.31837 0.422878
lowerneck -22.6165 1.15034 0.285932
upperneck 12.9843 2.30441 -4.72574
head 7.75688 0.602316 -1.33203
rclavicle 1.32689e-014 1.90833e-014
rhumerus 16.6121 42.2465 -71.2384
rradius 107.616
rwrist -45.408
rhand -46.6186 -34.4489
rfingers 7.12502
rthumb -19.3406 -63.5071
lclavicle 1.32689e-014 1.90833e-014
lhumerus 13.979 -38.4659 81.5369
lradius 102.356
lwrist -3.38397
lhand -51.8401 61.6555
lfingers 7.12502
lthumb -24.3542 -90.1281
rfemur 7.34317 -2.41742 15.5972
rtibia 25.0435
rfoot -38.292 -21.36
rtoes -3.31197
lfemur -54.5198 -2.41358 -27.7255
ltibia 46.6023
lfoot -8.51717 -4.16973
ltoes -21.257
140
root -17.0363 14.7703 4.51486 9.03847 -98.684 8.40057
lowerback 15.1408 3.39808 1.13277
upperback -10.5932 5.18802 2.46512
thorax -21.4264 2.24671 0.65704
lowerneck -22.0021 0.801855 -0.129248
upperneck 12.5828 1.87496 -4.39652
head 7.50201 0.426463 -1.20771
rclavicle -2.32236e-014 -1.43125e-014
rhumerus 14.4886 42.6191 -71.881
rradius 109.773
rwrist -41.2601
rhand -46.6678 -39.2626
rfingers 7.12502
rthumb -19.3879 -68.316
lclavicle -2.32236e-014 -1.43125e-014
lhumerus 12.625 -39.1124 82.4161
lradius 103.698
lwrist -3.11049
lhand -50.146 62.144
lfingers 7.12502
lthumb -22.7292 -90.8252
rfemur 6.69979 -3.71219 15.6896
rtibia 26.3924
rfoot -38.2743 -21.5035
rtoes -1.68643
lfemur -54.0543 -3.29292 -28.0066
ltibia 46.8418
lfoot -8.93765 -4.71078
ltoes -20.8673
141
root -17.1988 14.8245 4.54852 10.1114 -98.3736 7.72884
lowerback 14.6879 3.20654 0.855509
upperback -10.6504 4.84489 2.53748
thorax -21.215 2.15168 1.03449
lowerneck -21.5051 0.73078 -0.52323
upperneck 12.1645 1.76007 -3.74331
head 7.2671 0.432428 -0.939574
rclavicle -7.56935e-015 8.74653e-015
rhumerus 13.0648 43.3098 -71.8224
rradius 111.013
rwrist -39.8501
rhand -46.8675 -40.1626
rfingers 7.12502
rthumb -19.5799 -69.1966
lclavicle -7.56935e-015 8.74653e-015
lhumerus 11.3303 -40.3983 83.1585
lradius 104.589
lwrist -1.48423
lhand -52.4218 58.6639
lfingers 7.12502
lthumb -24.9118 87.0604
rfemur 5.73188 -4.79038 16.0213
rtibia 27.7589
rfoot -38.0689 -20.7324
rtoes -3.33769
lfemur -53.728 -4.26225 -28.2366
ltibia 46.8755
lfoot -9.41987 -5.02764
ltoes -19.7352
